<svg xmlns="http://www.w3.org/2000/svg" width="19" height="19" viewBox="0 0 19 19"><path fill="#fff" d="M15.33 18.01H3.66A3.66 3.66 0 0 1 0 14.27V7.12c0-2.1 1.6-3.74 3.66-3.74h.78c.11 0 .2-.08.22-.2A2.54 2.54 0 0 1 7.16 1h4.67c1.28 0 2.36.93 2.5 2.18.01.11.1.2.22.2h.78a3.66 3.66 0 0 1 3.66 3.74v7.15c0 2.1-1.6 3.74-3.66 3.74zM3.66 4.51A2.56 2.56 0 0 0 1.1 7.11v7.15a2.56 2.56 0 0 0 2.56 2.62h11.67a2.56 2.56 0 0 0 2.56-2.62V7.12a2.56 2.56 0 0 0-2.56-2.62h-.78c-.67 0-1.24-.51-1.32-1.2a1.38 1.38 0 0 0-1.4-1.18H7.16c-.7 0-1.28.52-1.41 1.26A1.33 1.33 0 0 1 4.44 4.5zm5.84 9.83a3.8 3.8 0 0 1-3.76-3.84A3.8 3.8 0 0 1 9.5 6.66a3.8 3.8 0 0 1 3.76 3.84 3.8 3.8 0 0 1-3.76 3.84zm0-6.56a2.7 2.7 0 0 0-2.66 2.72 2.7 2.7 0 0 0 2.66 2.72 2.7 2.7 0 0 0 2.65-2.72A2.7 2.7 0 0 0 9.5 7.78z"/></svg>