<svg xmlns="http://www.w3.org/2000/svg" width="23" height="23" viewBox="0 0 23 23"><path fill="#fff" d="M20.15 23c-.62 0-1.2-.1-1.68-.2a21.29 21.29 0 0 1-4.97-1.78c-1.59.27-3.22.23-4.8-.14a11.08 11.08 0 0 1-7.12-5.14A9.63 9.63 0 0 1 .3 9.02a10.13 10.13 0 0 1 4.19-6.73C6.48.8 8.84.01 11.32 0l.56.03a11.37 11.37 0 0 1 7.8 3.32 10.05 10.05 0 0 1 1.18 13.11l-.01.02c-.34.44-.7.87-1.07 1.28.07.18.14.37.24.55.3.58.8 1.04 1.32 1.53l.2.19c.22.21.45.43.65.66.46.5.45.97.36 1.27-.13.43-.46.72-1 .86a5.6 5.6 0 0 1-1.4.17zm-6.65-4c.3 0 .6.08.87.22 1.18.57 2.78 1.28 4.48 1.61.28.06.53.1.77.12-.48-.46-.98-1-1.34-1.7a7.53 7.53 0 0 1-.34-.77l-.1-.24c-.25-.58-.1-1.27.37-1.7.34-.38.72-.83 1.07-1.29A7.8 7.8 0 0 0 20.75 10 7.98 7.98 0 0 0 18.3 4.8a9.45 9.45 0 0 0-5.5-2.67c-.34-.05-.68-.06-1.02-.08L11.26 2c-2 0-3.96.66-5.62 1.9a8.21 8.21 0 0 0-3.4 5.45 7.62 7.62 0 0 0 1.02 5.32 9.05 9.05 0 0 0 5.89 4.24c1.32.31 2.68.35 4.04.11.1-.02.2-.02.31-.02z"/></svg>