<svg version="1.1" viewBox="0 0 18 17" xmlns="http://www.w3.org/2000/svg">
 <path d="m6.39 11.34c0.7 0.44 1.92 0.66 2.61 0.66 0.93002-0.09449 1.8461-0.29581 2.73-0.6 2.56 0.887 4.5148 2.984 5.22 5.6h1.05c-0.69491-2.8904-2.7436-5.2668-5.5-6.38 4.6326-3.3627 2.2039-10.69-3.52-10.62-5.8926 0.069748-7.8011 7.6361-3.51 10.6-2.7468 1.1291-4.7825 3.5109-5.47 6.4h1.04c0.71966-2.6654 2.7293-4.7915 5.35-5.66zm-2.3-5.46c0-6.54 9.81-6.54 9.81 0 0 2.7-2.2 5.12-4.9 5.12s-4.9-2.43-4.9-5.12z" fill="#2effff"/>
</svg>
