<svg xmlns="http://www.w3.org/2000/svg" width="1949" height="1002" viewBox="0 0 1949 1002"><path fill="#5c1bbf" d="M162 99.85l-18 .15 8.88-16zM366.81 103.91L354 91.3l17.58-5.03z"/><path fill="#c41162" d="M258 59a2 2 0 0 1 2 2v13a2 2 0 0 1-4 0V61c0-1.1.9-2 2-2zM470 70h13a2 2 0 0 1 0 4h-13a2 2 0 1 1 0-4z"/><path fill="#fff" d="M268.29 155.01c-9.03-.04-14.9 7.01-15.3 15.32-.1 2.22 3.45 2.21 3.56 0 .31-6.45 4.71-11.9 11.74-11.87 2.29.02 2.3-3.43 0-3.45zM432.71 163.99c9.03.04 14.9-7 15.3-15.3.1-2.2-3.45-2.2-3.56 0-.31 6.45-4.71 11.89-11.74 11.85-2.29 0-2.3 3.43 0 3.45z"/><path fill="#5c1bbf" d="M27 410.85l-18 .14 8.88-16zM254.81 414.91L242 402.3l17.58-5.04zM485.39 415.66l-9.12-15.51 18.29-.32z"/><path fill="#c41162" d="M134 370a2 2 0 0 1 2 2v13a2 2 0 0 1-4 0v-13c0-1.1.9-2 2-2zM366 381h13a2 2 0 0 1 0 4h-13a2 2 0 1 1 0-4z"/><path fill="#fff" d="M148.29 466.01c-9.03-.04-14.9 7.01-15.3 15.32-.1 2.22 3.45 2.21 3.56 0 .31-6.45 4.71-11.9 11.74-11.87 2.29.02 2.3-3.43 0-3.45zM297.71 474.99c9.03.04 14.9-7 15.3-15.3.1-2.2-3.45-2.2-3.56 0-.31 6.45-4.71 11.89-11.74 11.85-2.29 0-2.3 3.43 0 3.45z"/><path fill="#5c1bbf" d="M467.98 244.84l18.01.14-8.88-15.99zM256.96 258.9l12.84-12.61-17.6-5.04zM9.18 249.64l9.13-15.5-18.3-.32z"/><path fill="#c41162" d="M360.88 204a2 2 0 0 1 2 2v13a2 2 0 0 1-4 0v-13c0-1.1.89-2 2-2zM115.66 215h13.03a2 2 0 0 1 0 4h-13.03a2 2 0 0 1 0-4z"/><path fill="#fff" d="M351.59 299.99c9.03-.05 14.9 7 15.3 15.31.11 2.22-3.45 2.21-3.55 0-.31-6.45-4.72-11.9-11.75-11.86-2.3 0-2.3-3.44 0-3.45zM197.03 308.96c-9.04.04-14.92-7-15.31-15.29-.11-2.21 3.45-2.2 3.56 0 .3 6.44 4.72 11.88 11.75 11.84 2.29 0 2.3 3.44 0 3.45z"/><path fill="#5c1bbf" d="M609 40.85L591 41l8.88-16zM813.82 44.91L800.99 32.3l17.58-5.03z"/><path fill="#c41162" d="M705 0a2 2 0 0 1 2 2v13a2 2 0 1 1-4 0V2c0-1.1.9-2 2-2zM917 11h13a2 2 0 1 1 0 4h-13a2 2 0 1 1 0-4z"/><path fill="#fff" d="M715.29 96.01c-9.03-.04-14.9 7.01-15.3 15.32-.1 2.22 3.45 2.21 3.56 0 .31-6.45 4.71-11.9 11.74-11.87 2.29.02 2.3-3.43 0-3.45zM879.71 104.99c9.03.04 14.9-7 15.3-15.3.1-2.2-3.45-2.2-3.56 0-.31 6.45-4.71 11.89-11.74 11.85-2.29 0-2.3 3.43 0 3.45z"/><path fill="#5c1bbf" d="M701.82 355.91l-12.83-12.62 17.58-5.04zM932.39 356.66l-9.12-15.51 18.29-.32z"/><path fill="#c41162" d="M581 311a2 2 0 0 1 2 2v13a2 2 0 1 1-4 0v-13c0-1.1.9-2 2-2zM813 322h13a2 2 0 1 1 0 4h-13a2 2 0 1 1 0-4z"/><path fill="#fff" d="M595.29 407.01c-9.03-.04-14.9 7.01-15.3 15.32-.1 2.22 3.45 2.21 3.56 0 .31-6.45 4.71-11.9 11.74-11.87 2.29.02 2.3-3.43 0-3.45zM744.71 415.99c9.03.04 14.9-7 15.3-15.3.1-2.2-3.45-2.2-3.56 0-.31 6.45-4.71 11.89-11.74 11.85-2.29 0-2.3 3.43 0 3.45z"/><path fill="#5c1bbf" d="M914.98 197.84l18.01.14-8.88-15.99zM703.96 199.9l12.84-12.61-17.6-5.04z"/><path fill="#c41162" d="M807.88 145a2 2 0 0 1 2 2v13a2 2 0 1 1-4 0v-13c0-1.1.89-2 2-2zM562.66 156h13.03a2 2 0 0 1 0 4h-13.03a2 2 0 0 1 0-4z"/><path fill="#fff" d="M798.59 240.99c9.03-.05 14.9 7 15.3 15.31.11 2.22-3.45 2.21-3.56 0-.3-6.45-4.71-11.9-11.74-11.86-2.3 0-2.3-3.44 0-3.45zM644.03 249.96c-9.04.04-14.91-7-15.31-15.29-.11-2.21 3.45-2.2 3.56 0 .3 6.44 4.72 11.88 11.75 11.85 2.29-.02 2.3 3.43 0 3.44z"/><path fill="#5c1bbf" d="M1786.92 157.84l18.01.15-8.88-16zM1582.01 161.9l12.84-12.61-17.6-5.04z"/><path fill="#c41162" d="M1690.87 117a2 2 0 0 1 2 2v13a2 2 0 1 1-4 0v-13c0-1.1.9-2 2-2zM1465.78 128h13a2 2 0 1 1 0 4h-13a2 2 0 0 1 0-4z"/><path fill="#fff" d="M1680.59 213c9.03-.04 14.9 7.01 15.3 15.32.11 2.22-3.45 2.21-3.56 0-.31-6.46-4.71-11.9-11.74-11.87-2.29.02-2.3-3.43 0-3.45zM1516.09 221.97c-9.04.05-14.91-6.99-15.31-15.28-.1-2.22 3.46-2.21 3.56 0 .31 6.44 4.72 11.88 11.75 11.84 2.29 0 2.29 3.43 0 3.44z"/><path fill="#5c1bbf" d="M1921.99 468.82l18 .15-8.88-16zM1694.07 472.89l12.83-12.62-17.59-5.04zM1463.38 473.63l9.13-15.5-18.3-.32z"/><path fill="#c41162" d="M1814.94 427.97a2 2 0 0 1 2 2v13a2 2 0 0 1-4 0v-13a2 2 0 0 1 2-2zM1569.81 438.97h13.03a2 2 0 1 1 0 4h-13.03a2 2 0 0 1 0-4z"/><path fill="#fff" d="M1800.64 523.98c9.04-.04 14.91 7.01 15.31 15.32.1 2.22-3.46 2.21-3.56 0-.31-6.45-4.72-11.9-11.75-11.87-2.29.02-2.29-3.43 0-3.45zM1651.15 532.96c-9.03.04-14.91-7-15.31-15.3-.1-2.2 3.46-2.2 3.57 0 .31 6.45 4.71 11.89 11.74 11.85 2.29 0 2.29 3.43 0 3.45z"/><path fill="#5c1bbf" d="M1480.8 302.82l-18.02.15 8.88-16zM1691.92 316.88l-12.85-12.61 17.61-5.04zM1939.82 307.63l-9.14-15.5 18.31-.32z"/><path fill="#c41162" d="M1587.97 262a2 2 0 0 1 2 2v13a2 2 0 0 1-4 0v-13a2 2 0 0 1 2-2zM1820.25 273h13.03a2 2 0 1 1 0 4h-13.03a2 2 0 0 1 0-4z"/><path fill="#fff" d="M1597.25 357.97c-9.04-.05-14.92 7-15.32 15.31-.11 2.22 3.46 2.21 3.57 0 .31-6.45 4.72-11.9 11.75-11.86 2.29 0 2.3-3.44 0-3.45zM1751.88 366.94c9.04.04 14.92-7 15.32-15.29.11-2.21-3.46-2.2-3.57 0-.31 6.44-4.72 11.88-11.75 11.85-2.29-.02-2.3 3.43 0 3.44z"/><path fill="#5c1bbf" d="M1339.72 98.85l18 .14-8.88-16zM1134.81 102.91l12.83-12.62-17.59-5.04z"/><path fill="#c41162" d="M1243.66 58h.03a2 2 0 0 1 2 2v13a2 2 0 0 1-2 2h-.03a2 2 0 0 1-2-2V60a2 2 0 0 1 2-2zM1018.56 69h13a2 2 0 1 1 0 4h-13a2 2 0 0 1 0-4z"/><path fill="#fff" d="M1233.38 154c9.03-.04 14.91 7.02 15.3 15.32.11 2.22-3.45 2.22-3.56 0-.31-6.45-4.71-11.9-11.74-11.86-2.29 0-2.29-3.44 0-3.45zM1068.88 162.98c-9.03.05-14.91-7-15.31-15.29-.1-2.21 3.46-2.2 3.57 0 .31 6.44 4.71 11.88 11.74 11.85 2.29-.01 2.29 3.43 0 3.44z"/><path fill="#5c1bbf" d="M1246.86 413.9l12.83-12.63-17.59-5.04z"/><path fill="#c41162" d="M1367.72 368.97a2 2 0 0 1 2 2v13a2 2 0 0 1-4 0v-13a2 2 0 0 1 2-2zM1125.93 375.96l9.2 9.2a2 2 0 0 1-2.83 2.82l-9.2-9.2a2 2 0 0 1 2.83-2.82z"/><path fill="#fff" d="M1353.44 464.99c9.03-.05 14.9 7 15.3 15.31.11 2.22-3.46 2.22-3.56 0-.31-6.45-4.72-11.9-11.74-11.86-2.3 0-2.3-3.44 0-3.45zM1203.94 473.96c-9.03.05-14.9-7-15.3-15.29-.11-2.21 3.45-2.2 3.56 0 .31 6.44 4.71 11.88 11.74 11.85 2.29-.01 2.3 3.43 0 3.44z"/><path fill="#5c1bbf" d="M1244.71 257.89l-12.85-12.62 17.61-5.03z"/><path fill="#c41162" d="M1140.75 203a2 2 0 0 1 2 2v13a2 2 0 0 1-4 0v-13c0-1.1.9-2 2-2zM992.53 267.19l9.22-9.22a2 2 0 0 1 2.83 2.83l-9.22 9.22a2 2 0 0 1-2.83-2.83z"/><path fill="#fff" d="M1150.04 298.97c-9.04-.05-14.92 7-15.32 15.31-.1 2.22 3.46 2.22 3.57 0 .31-6.45 4.72-11.9 11.75-11.86 2.3.01 2.3-3.44 0-3.45zM1304.67 307.94c9.04.05 14.92-7 15.32-15.28.11-2.22-3.46-2.21-3.56 0-.31 6.44-4.72 11.87-11.76 11.84-2.29-.01-2.29 3.43 0 3.44z"/><path fill="#5c1bbf" d="M162 560.85l-18 .14 8.88-16zM366.81 564.91L354 552.3l17.58-5.03z"/><path fill="#c41162" d="M258 520a2 2 0 0 1 2 2v13a2 2 0 0 1-4 0v-13c0-1.1.9-2 2-2zM470 531h13a2 2 0 0 1 0 4h-13a2 2 0 1 1 0-4z"/><path fill="#fff" d="M268.29 616.01c-9.03-.04-14.9 7.01-15.3 15.32-.1 2.22 3.45 2.21 3.56 0 .31-6.45 4.71-11.9 11.74-11.87 2.29.01 2.3-3.43 0-3.45zM432.71 624.99c9.03.04 14.9-7 15.3-15.3.1-2.2-3.45-2.2-3.56 0-.31 6.45-4.71 11.89-11.74 11.85-2.29 0-2.3 3.43 0 3.45z"/><path fill="#5c1bbf" d="M27 871.85l-18 .14 8.88-16zM254.81 875.91L242 863.3l17.58-5.03zM485.39 876.66l-9.12-15.51 18.29-.32z"/><path fill="#c41162" d="M134 831a2 2 0 0 1 2 2v13a2 2 0 0 1-4 0v-13c0-1.1.9-2 2-2zM366 842h13a2 2 0 0 1 0 4h-13a2 2 0 1 1 0-4z"/><path fill="#fff" d="M148.29 927.01c-9.03-.04-14.9 7.01-15.3 15.32-.1 2.22 3.45 2.21 3.56 0 .31-6.45 4.71-11.9 11.74-11.87 2.29.01 2.3-3.43 0-3.45zM297.71 935.99c9.03.04 14.9-7 15.3-15.3.1-2.2-3.45-2.2-3.56 0-.31 6.45-4.71 11.89-11.74 11.85-2.29 0-2.3 3.43 0 3.45z"/><path fill="#5c1bbf" d="M467.98 705.84l18.01.14-8.88-15.99zM256.96 719.9l12.84-12.62-17.6-5.03zM9.18 710.64l9.13-15.5-18.3-.32z"/><path fill="#c41162" d="M360.88 665a2 2 0 0 1 2 2v13a2 2 0 0 1-4 0v-13c0-1.1.89-2 2-2zM115.66 676h13.03a2 2 0 0 1 0 4h-13.03a2 2 0 0 1 0-4z"/><path fill="#fff" d="M351.59 760.99c9.03-.05 14.9 7 15.3 15.31.11 2.22-3.45 2.21-3.55 0-.31-6.45-4.72-11.9-11.75-11.86-2.3 0-2.3-3.44 0-3.45zM197.03 769.96c-9.04.04-14.92-7-15.31-15.29-.11-2.21 3.45-2.2 3.56 0 .3 6.44 4.72 11.88 11.75 11.85 2.29-.02 2.3 3.42 0 3.44z"/><path fill="#5c1bbf" d="M609 501.85l-18 .14 8.88-16zM813.82 505.91l-12.83-12.62 17.58-5.04z"/><path fill="#c41162" d="M705 461a2 2 0 0 1 2 2v13a2 2 0 1 1-4 0v-13c0-1.1.9-2 2-2zM917 472h13a2 2 0 1 1 0 4h-13a2 2 0 1 1 0-4z"/><path fill="#fff" d="M715.29 557.01c-9.03-.04-14.9 7.01-15.3 15.32-.1 2.22 3.45 2.21 3.56 0 .31-6.45 4.71-11.9 11.74-11.87 2.29.01 2.3-3.43 0-3.45zM879.71 565.99c9.03.04 14.9-7 15.3-15.3.1-2.2-3.45-2.2-3.56 0-.31 6.45-4.71 11.89-11.74 11.85-2.29 0-2.3 3.43 0 3.45z"/><path fill="#5c1bbf" d="M701.82 816.91l-12.83-12.62 17.58-5.03zM932.39 817.66l-9.12-15.51 18.29-.32z"/><path fill="#c41162" d="M581 772a2 2 0 0 1 2 2v13a2 2 0 1 1-4 0v-13c0-1.1.9-2 2-2zM813 783h13a2 2 0 1 1 0 4h-13a2 2 0 1 1 0-4z"/><path fill="#fff" d="M595.29 868.01c-9.03-.04-14.9 7.01-15.3 15.32-.1 2.22 3.45 2.21 3.56 0 .31-6.45 4.71-11.9 11.74-11.87 2.29.01 2.3-3.43 0-3.45zM744.71 876.99c9.03.04 14.9-7 15.3-15.3.1-2.2-3.45-2.2-3.56 0-.31 6.45-4.71 11.89-11.74 11.85-2.29 0-2.3 3.43 0 3.45z"/><path fill="#5c1bbf" d="M914.98 646.84l18.01.14-8.88-15.99zM703.96 660.9l12.84-12.62-17.6-5.03z"/><path fill="#c41162" d="M807.88 606a2 2 0 0 1 2 2v13a2 2 0 1 1-4 0v-13c0-1.1.89-2 2-2zM562.66 617h13.03a2 2 0 0 1 0 4h-13.03a2 2 0 0 1 0-4z"/><path fill="#fff" d="M798.59 701.99c9.03-.05 14.9 7 15.3 15.31.11 2.22-3.45 2.21-3.56 0-.3-6.45-4.71-11.9-11.74-11.86-2.3 0-2.3-3.44 0-3.45zM644.03 710.96c-9.04.04-14.91-7-15.31-15.29-.11-2.21 3.45-2.2 3.56 0 .3 6.44 4.72 11.88 11.75 11.85 2.29-.02 2.3 3.42 0 3.44z"/><path fill="#5c1bbf" d="M1786.92 618.84l18.01.15-8.88-16zM1582.01 622.9l12.84-12.61-17.6-5.04z"/><path fill="#c41162" d="M1690.87 578a2 2 0 0 1 2 2v13a2 2 0 1 1-4 0v-13c0-1.1.9-2 2-2zM1465.78 589h13a2 2 0 1 1 0 4h-13a2 2 0 0 1 0-4z"/><path fill="#fff" d="M1680.59 674c9.03-.04 14.9 7.01 15.3 15.32.11 2.22-3.45 2.21-3.56 0-.31-6.46-4.71-11.9-11.74-11.87-2.29.01-2.3-3.43 0-3.45zM1516.09 682.98c-9.04.04-14.91-7-15.31-15.3-.1-2.2 3.46-2.2 3.56 0 .31 6.45 4.72 11.89 11.75 11.85 2.29 0 2.29 3.43 0 3.45z"/><path fill="#5c1bbf" d="M1921.99 929.82l18 .15-8.88-16zM1694.07 933.89l12.83-12.62-17.59-5.04zM1463.38 934.63l9.13-15.5-18.3-.32z"/><path fill="#c41162" d="M1814.94 888.97a2 2 0 0 1 2 2v13a2 2 0 0 1-4 0v-13a2 2 0 0 1 2-2zM1569.81 899.97h13.03a2 2 0 1 1 0 4h-13.03a2 2 0 0 1 0-4z"/><path fill="#fff" d="M1800.64 984.98c9.04-.04 14.91 7.01 15.31 15.32.1 2.22-3.46 2.21-3.56 0-.31-6.45-4.72-11.9-11.75-11.87-2.29.02-2.29-3.43 0-3.45zM1651.15 993.96c-9.03.04-14.91-7-15.31-15.3-.1-2.2 3.46-2.2 3.57 0 .31 6.45 4.71 11.89 11.74 11.85 2.29 0 2.29 3.43 0 3.45z"/><path fill="#5c1bbf" d="M1480.8 763.82l-18.02.15 8.88-16zM1691.92 777.88l-12.85-12.61 17.61-5.04zM1939.82 768.63l-9.14-15.5 18.31-.32z"/><path fill="#c41162" d="M1587.97 723a2 2 0 0 1 2 2v13a2 2 0 0 1-4 0v-13a2 2 0 0 1 2-2zM1820.25 734h13.03a2 2 0 1 1 0 4h-13.03a2 2 0 0 1 0-4z"/><path fill="#fff" d="M1597.25 818.97c-9.04-.05-14.92 7-15.32 15.31-.11 2.22 3.46 2.21 3.57 0 .31-6.45 4.72-11.9 11.75-11.86 2.29 0 2.3-3.44 0-3.45zM1751.88 827.94c9.04.04 14.92-7 15.32-15.29.11-2.21-3.46-2.2-3.57 0-.31 6.45-4.72 11.88-11.75 11.85-2.29-.02-2.3 3.42 0 3.44z"/><path fill="#5c1bbf" d="M1339.72 559.85l18 .14-8.88-16zM1134.81 563.91l12.83-12.62-17.59-5.04z"/><path fill="#c41162" d="M1243.66 519h.03a2 2 0 0 1 2 2v13a2 2 0 0 1-2 2h-.03a2 2 0 0 1-2-2v-13a2 2 0 0 1 2-2zM1019.05 535.18l9.2-9.2a2 2 0 0 1 2.83 2.83l-9.2 9.2a2 2 0 0 1-2.83-2.83z"/><path fill="#fff" d="M1233.38 615c9.03-.04 14.91 7.01 15.3 15.32.11 2.22-3.45 2.22-3.56 0-.31-6.45-4.71-11.9-11.74-11.86-2.29 0-2.29-3.44 0-3.45zM1068.88 623.98c-9.03.05-14.91-7-15.31-15.29-.1-2.21 3.46-2.2 3.57 0 .31 6.44 4.71 11.88 11.74 11.85 2.29-.01 2.29 3.43 0 3.44z"/><path fill="#5c1bbf" d="M1246.86 874.9l12.83-12.63-17.59-5.04zM1016.18 875.63l9.12-15.5-18.29-.32z"/><path fill="#c41162" d="M1367.72 829.97a2 2 0 0 1 2 2v13a2 2 0 0 1-4 0v-13a2 2 0 0 1 2-2zM1122.62 840.97h13.01a2 2 0 0 1 1.99 2 2 2 0 0 1-1.99 2h-13.01a2 2 0 0 1 0-4z"/><path fill="#fff" d="M1353.44 925.99c9.03-.05 14.9 7 15.3 15.31.11 2.22-3.46 2.22-3.56 0-.31-6.45-4.72-11.9-11.74-11.86-2.3 0-2.3-3.44 0-3.45zM1203.94 934.96c-9.03.05-14.9-7-15.3-15.29-.11-2.21 3.45-2.2 3.56 0 .31 6.44 4.71 11.88 11.74 11.85 2.29-.01 2.3 3.43 0 3.44z"/><path fill="#5c1bbf" d="M1033.59 704.83l-18.02.14 8.89-16zM1244.71 718.89l-12.85-12.62 17.61-5.03z"/><path fill="#c41162" d="M1140.75 664a2 2 0 0 1 2 2v13a2 2 0 0 1-4 0v-13c0-1.1.9-2 2-2zM1373.03 675h13.06a2 2 0 1 1 0 4h-13.06a2 2 0 0 1 0-4z"/><path fill="#fff" d="M1150.04 759.97c-9.04-.05-14.92 7-15.32 15.31-.1 2.22 3.46 2.22 3.57 0 .31-6.45 4.72-11.9 11.75-11.86 2.3.01 2.3-3.44 0-3.45zM1304.67 768.94c9.04.05 14.92-7 15.32-15.28.11-2.22-3.46-2.21-3.56 0-.31 6.44-4.72 11.88-11.76 11.84-2.29-.01-2.29 3.43 0 3.44z"/></svg>