<svg xmlns="http://www.w3.org/2000/svg" width="127.063" height="31" viewBox="0 0 127.063 31">
  <defs>
    <style>
      .cls-1 {
        fill: #c41162;
        fill-rule: evenodd;
      }
    </style>
  </defs>
  <path id="Google" class="cls-1" d="M591.28,1978.7l-11.413,10.68c2.628-1.44,9.67-5.29,9.67-5.29l2.063-1.13,2.653-1.45h0l-2.974-2.81m4.23-3.96-3.735,3.49,3.1,2.94,0.043-.03s4.568-2.5,5.175-2.83,0.549-.79.037-1.05c-0.4-.2-3.344-1.82-4.622-2.52m-17.5-8.59h0a0.9,0.9,0,0,0-.015.17v23.15a0.506,0.506,0,0,0,.317.52l12.485-11.75-12.787-12.09m0.609-.51a0.732,0.732,0,0,0-.149.01h0l12.82,12.13,3.6-3.38-5.353-2.93s-9.81-5.37-10.386-5.68a1.11,1.11,0,0,0-.527-0.15m45.308,17.84h0m27.6,5.74c-2.188,0-3.6-1.06-3.6-2.52a2.316,2.316,0,0,1,1.764-2.12,8.058,8.058,0,0,1,2.148-.33,2.318,2.318,0,0,1,.472.03h0c1.553,1.11,2.229,1.66,2.229,2.71,0,1.28-1.044,2.23-3.01,2.23m-0.017-8.27c-1.738,0-2.528-2.24-2.528-3.59a2.311,2.311,0,0,1,.445-1.49,1.873,1.873,0,0,1,1.415-.67c1.681,0,2.548,2.26,2.548,3.71a2.019,2.019,0,0,1-.508,1.47h0a2.071,2.071,0,0,1-1.372.57m4.79-6.36h-4.186a5.553,5.553,0,0,0-3.636,1.11,3.629,3.629,0,0,0-1.3,2.71,3.206,3.206,0,0,0,3.372,3.18c0.2,0,.427-0.02.649-0.04a1.8,1.8,0,0,0-.2.79,2.105,2.105,0,0,0,.611,1.37,8.873,8.873,0,0,0-3.879.93,2.909,2.909,0,0,0-1.566,2.47c0,1.49,1.423,2.89,4.367,2.89,3.494,0,5.343-1.92,5.343-3.82,0-1.4-.813-2.08-1.705-2.83l-0.734-.57a1.1,1.1,0,0,1-.528-0.87,1.431,1.431,0,0,1,.569-0.99,3.287,3.287,0,0,0,.264-5.6h1.262l1.3-.73m48.753-.09h-1.167l-3.452,8.28-3.487-8.28H695.8l4.065,9.56-0.753,1.68a1.49,1.49,0,0,1-1.465,1.16,2.4,2.4,0,0,1-.836-0.16h0l-0.177.95a4.556,4.556,0,0,0,1.031.13,2.53,2.53,0,0,0,2.435-1.76l4.957-11.56m-74.372,8.97c-2.473,0-3.475-3.33-3.475-5.34a3.093,3.093,0,0,1,.941-2.5,2.836,2.836,0,0,1,1.839-.69c2.532,0,3.392,3.43,3.392,5.23a3.683,3.683,0,0,1-.613,2.26h0a2.623,2.623,0,0,1-2.084,1.04m-0.141-9.14a5.045,5.045,0,0,0-5.273,4.95,4.8,4.8,0,0,0,4.966,4.8,4.971,4.971,0,0,0,5.172-4.95,4.758,4.758,0,0,0-4.865-4.8m10.983,9.14c-2.475,0-3.473-3.33-3.473-5.34a3.1,3.1,0,0,1,.94-2.5,2.845,2.845,0,0,1,1.841-.69c2.533,0,3.391,3.43,3.391,5.23a3.657,3.657,0,0,1-.614,2.26h0a2.622,2.622,0,0,1-2.085,1.04m-0.14-9.14a5.044,5.044,0,0,0-5.272,4.95,4.8,4.8,0,0,0,4.966,4.8,4.972,4.972,0,0,0,5.172-4.95,4.759,4.759,0,0,0-4.866-4.8m21.326,4.53c-0.021-.37-0.062-0.74-0.062-1.08,0-2.21,1.514-2.84,2.32-2.84a2.016,2.016,0,0,1,2,1.76,0.636,0.636,0,0,1-.586.54h0l-3.673,1.62m2.853-4.53a4.614,4.614,0,0,0-4.678,4.68,5.247,5.247,0,0,0,2.082,4.28,4.383,4.383,0,0,0,2.717.79,4.846,4.846,0,0,0,1.981-.38c0.224-.1.448-0.25,0.674-0.37l0.976-.92h0c0.038-.03.039-0.05,0.027-0.05a0.221,0.221,0,0,0-.065.03,5.114,5.114,0,0,1-2.348.64c-1.94,0-3.7-1.5-4.2-4.08l1.571-.12,4.8-1.93a3.4,3.4,0,0,0-1.43-2,3.951,3.951,0,0,0-2.1-.57m12.857,9.14a4.13,4.13,0,0,1-3.164-2v-4.23a4.106,4.106,0,0,1,3.164-1.95c2.148,0,3.36,1.76,3.36,4.08s-1.212,4.1-3.36,4.1m0.136-9.14a4.1,4.1,0,0,0-3.327,1.73v-1.49h-1.031v13.08h1.031v-5.14h0a4.118,4.118,0,0,0,3.327,1.76c2.558,0,4.282-1.96,4.282-4.98,0-3.04-1.724-4.96-4.282-4.96m11.656,9.05a2.324,2.324,0,0,1-1.592-.5,1.628,1.628,0,0,1-.581-1.31,1.788,1.788,0,0,1,.912-1.49,4.017,4.017,0,0,1,2.3-.61h2.429v1.83a2.973,2.973,0,0,1-1.308,1.5,3.891,3.891,0,0,1-2.161.58h0m0.842-9.05a4.36,4.36,0,0,0-2.761.82,2.187,2.187,0,0,0-1,1.89l0.022,0.05h1.062a1.61,1.61,0,0,1,.72-1.33,3.172,3.172,0,0,1,1.9-.53,3.024,3.024,0,0,1,1.986.59,1.966,1.966,0,0,1,.7,1.6v1.19h-2.42a5.662,5.662,0,0,0-3.156.79,2.406,2.406,0,0,0-1.218,2.08,2.6,2.6,0,0,0,.839,2.03,3.412,3.412,0,0,0,2.355.74,4.179,4.179,0,0,0,2.1-.5,4.093,4.093,0,0,0,1.5-1.29,5.809,5.809,0,0,0,.049.74c0.039,0.25.091,0.54,0.16,0.87h1.2a6.311,6.311,0,0,1-.207-0.95,7.353,7.353,0,0,1-.059-0.98v-4.7a2.729,2.729,0,0,0-1.035-2.3,4.323,4.323,0,0,0-2.737-.81m-5.748-3.4h-1.058v13.15h1.058v-13.15m-66.844-.52c-4.887,0-7.741,3.43-7.741,7.12,0,3.03,2.014,6.9,7.3,6.9a19.489,19.489,0,0,0,3.164-.33l2.74-.62v-2.32c0-.2.019-0.75,0.039-0.92a0.444,0.444,0,0,1,.19-0.31l0.5-.47H620.6l-1.534.82,2.894-.16v3.07a5.7,5.7,0,0,1-2.433.48,6.751,6.751,0,0,1-6.781-6.95,5.271,5.271,0,0,1,5.3-5.62,5.479,5.479,0,0,1,4.1,1.79l-0.479.76,0.671-.15,1.592-1.51a7.39,7.39,0,0,0-2.528-1.18,11.081,11.081,0,0,0-2.935-.4m41.744-.87H657.3l-1.524.73h1.583l0.008,12.03v0.45a1.475,1.475,0,0,1-.551,1.07H660.4l0.753-.45c-0.344-.04-0.691-0.06-1.04-0.1-0.668-.06-0.809-0.18-0.809-0.97h0l0-11.47a1.4,1.4,0,0,1,.9-1.29m-37.445-10.45h-4.5v5.99h4.5v-0.92h-3.351v-1.67H622.7v-0.93h-3.282v-1.54h3.351v-0.93m6.157,0h-5.054v0.93h1.959v5.06h1.136v-5.06h1.959v-0.93m5.147,0h-1.1v5.99h1.1v-5.99m6.25,0h-5.055v0.93h1.96v5.06h1.136v-5.06h1.959v-0.93m17.37,0h-1.135v4.15l-3.307-4.15h-1.164v5.99h1.134v-4.28l3.376,4.28h1.1v-5.99M614.13,1959a3.143,3.143,0,0,0-3.4,3.08h0a3.151,3.151,0,0,0,3.4,3.09,3.653,3.653,0,0,0,2.664-1.09v-2.22h-3.072v0.92h1.944v0.92a2.436,2.436,0,0,1-1.536.53,2.152,2.152,0,1,1,0-4.3,2.168,2.168,0,0,1,1.682.79l0.923-.49a3.108,3.108,0,0,0-2.605-1.23m33.315,5.17a2.13,2.13,0,1,1,2.159-2.13,2.051,2.051,0,0,1-2.159,2.13m0-5.17a3.1,3.1,0,1,0,3.354,3.09,3.117,3.117,0,0,0-3.354-3.09" transform="translate(-578 -1959)"/>
</svg>
