<svg xmlns="http://www.w3.org/2000/svg" width="18.938" height="17" viewBox="0 0 18.938 17">
  <defs>
    <style>
      .cls-1 {
        fill: #fff;
        fill-rule: evenodd;
      }
    </style>
  </defs>
  <path id="Like" class="cls-1" d="M453.487,1223l-1.231-1.02c-3.717-3.05-5.961-4.89-7.225-7.36a6.45,6.45,0,0,1-.732-5.27,4.469,4.469,0,0,1,2.509-2.89,5.477,5.477,0,0,1,2.11-.47,5.247,5.247,0,0,1,4.291,2.32l0.323,0.49,0.322-.49a5.255,5.255,0,0,1,6.347-1.87,4.745,4.745,0,0,1,2.577,2.95,7.212,7.212,0,0,1-.739,5.22c-1.424,2.6-3.812,4.56-7.769,7.81Zm-4.569-15.85a4.185,4.185,0,0,0-1.633.37,3.3,3.3,0,0,0-1.861,2.17,5.325,5.325,0,0,0,.652,4.4c1.161,2.27,3.335,4.05,6.937,7.01l0.516,0.42h0.01c3.824-3.15,6.147-5.05,7.451-7.44a6.083,6.083,0,0,0,.654-4.38,3.6,3.6,0,0,0-1.95-2.22,4.042,4.042,0,0,0-4.851,1.45l-1.311,2-1.312-2A4.051,4.051,0,0,0,448.918,1207.15Z" transform="translate(-444.031 -1206)"/>
</svg>
