<svg xmlns="http://www.w3.org/2000/svg" width="7" height="10" viewBox="0 0 7 10">
  <defs>
    <style>
      .cls-1 {
        fill: #fff;
        fill-rule: evenodd;
      }
    </style>
  </defs>
  <path id="Фигура_8" data-name="Фигура 8" class="cls-1" d="M261.5,235a0.421,0.421,0,0,0-.254.107l-3.129,3.025a0.386,0.386,0,0,0-.014.534,0.371,0.371,0,0,0,.52.015l2.508-2.428v8.368a0.369,0.369,0,1,0,.737,0v-8.368l2.507,2.428a0.378,0.378,0,0,0,.521-0.015,0.385,0.385,0,0,0-.014-0.534l-3.13-3.025A0.322,0.322,0,0,0,261.5,235Z" transform="translate(-258 -235)"/>
</svg>
