<svg xmlns="http://www.w3.org/2000/svg" width="25" height="13" viewBox="0 0 25 13">
  <defs>
    <style>
      .cls-1 {
        fill: #77787b;
        fill-rule: evenodd;
      }
    </style>
  </defs>
  <path id="Фигура_4" data-name="Фигура 4" class="cls-1" d="M1099.51,669.264a32.091,32.091,0,0,1,2.46,2.263,6.646,6.646,0,0,1,.88,1.161,0.822,0.822,0,0,1-.56,1.3l-3.65,0a2.941,2.941,0,0,1-2.32-.866c-0.5-.472-0.97-0.974-1.46-1.462a3.062,3.062,0,0,0-.65-0.535,0.8,0.8,0,0,0-1.22.27,3.293,3.293,0,0,0-.38,1.562c-0.04.788-.3,1-1.16,1.031a10.029,10.029,0,0,1-5.22-1.029,11.271,11.271,0,0,1-3.51-3.017,39.668,39.668,0,0,1-4.62-7.558,0.907,0.907,0,0,1,.71-1.38c1.19-.021,2.14-0.018,3.33,0a1.827,1.827,0,0,1,1.16,1.131,19.632,19.632,0,0,0,2.42,4.115,3.607,3.607,0,0,0,.91.922,0.568,0.568,0,0,0,.94-0.255,2.377,2.377,0,0,0,.21-0.863,11.774,11.774,0,0,0-.05-3.024,1.322,1.322,0,0,0-1.17-1.154c-0.35-.061-0.3-0.18-0.13-0.362a1.35,1.35,0,0,1,1.12-.511h4.12a0.925,0.925,0,0,1,.88.984v4.2a1.22,1.22,0,0,0,.58,1.074,0.844,0.844,0,0,0,.83-0.371,13.179,13.179,0,0,0,2.32-3.272c0.28-.518.52-1.055,0.75-1.591a1.392,1.392,0,0,1,.96-1.024h4.18c0.11,0-.12-0.018,0,0a1.055,1.055,0,0,1,.75,1.428,9,9,0,0,1-1.57,2.51c-0.67.84-1.37,1.651-2.03,2.5a1.092,1.092,0,0,0,.19,1.83h0Zm0,0" transform="translate(-1078 -661)"/>
</svg>
