<svg xmlns="http://www.w3.org/2000/svg"><symbol id="icon_arrow" viewBox="0 0 11 6"><path d="M5.67 6L10.99.67 10.33 0 5.5 4.84.67 0 .01.67 5.33 6l.17-.18z"/></symbol><symbol id="icon_camera" viewBox="0 0 19 19"><path d="M15.33 18.01H3.66A3.66 3.66 0 0 1 0 14.27V7.12c0-2.1 1.6-3.74 3.66-3.74h.78c.11 0 .2-.08.22-.2A2.54 2.54 0 0 1 7.16 1h4.67c1.28 0 2.36.93 2.5 2.18.01.11.1.2.22.2h.78a3.66 3.66 0 0 1 3.66 3.74v7.15c0 2.1-1.6 3.74-3.66 3.74zM3.66 4.51a2.56 2.56 0 0 0-2.56 2.6v7.15a2.56 2.56 0 0 0 2.56 2.62h11.67a2.56 2.56 0 0 0 2.56-2.62V7.12a2.56 2.56 0 0 0-2.56-2.62h-.78c-.67 0-1.24-.51-1.32-1.2a1.38 1.38 0 0 0-1.4-1.18H7.16c-.7 0-1.28.52-1.41 1.26A1.33 1.33 0 0 1 4.44 4.5zm5.84 9.83a3.8 3.8 0 0 1-3.76-3.84A3.8 3.8 0 0 1 9.5 6.66a3.8 3.8 0 0 1 3.76 3.84 3.8 3.8 0 0 1-3.76 3.84zm0-6.56a2.7 2.7 0 0 0-2.66 2.72 2.7 2.7 0 0 0 2.66 2.72 2.7 2.7 0 0 0 2.65-2.72A2.7 2.7 0 0 0 9.5 7.78z"/></symbol><symbol id="icon_chat" viewBox="0 0 23 23"><path d="M20.15 23c-.62 0-1.2-.1-1.68-.2a21.29 21.29 0 0 1-4.97-1.78c-1.59.27-3.22.23-4.8-.14a11.08 11.08 0 0 1-7.12-5.14A9.63 9.63 0 0 1 .3 9.02a10.13 10.13 0 0 1 4.19-6.73C6.48.8 8.84.01 11.32 0l.56.03a11.37 11.37 0 0 1 7.8 3.32 10.05 10.05 0 0 1 1.18 13.11l-.01.02c-.34.44-.7.87-1.07 1.28.07.18.14.37.24.55.3.58.8 1.04 1.32 1.53l.2.19c.22.21.45.43.65.66.46.5.45.97.36 1.27-.13.43-.46.72-1 .86a5.6 5.6 0 0 1-1.4.17zm-6.65-4c.3 0 .6.08.87.22 1.18.57 2.78 1.28 4.48 1.61.28.06.53.1.77.12-.48-.46-.98-1-1.34-1.7a7.53 7.53 0 0 1-.34-.77l-.1-.24c-.25-.58-.1-1.27.37-1.7.34-.38.72-.83 1.07-1.29A7.8 7.8 0 0 0 20.75 10a7.98 7.98 0 0 0-2.45-5.2 9.45 9.45 0 0 0-5.5-2.67c-.34-.05-.68-.06-1.02-.08L11.26 2c-2 0-3.96.66-5.62 1.9a8.21 8.21 0 0 0-3.4 5.45 7.62 7.62 0 0 0 1.02 5.32 9.05 9.05 0 0 0 5.89 4.24c1.32.31 2.68.35 4.04.11.1-.02.2-.02.31-.02z"/></symbol><symbol id="icon_check" viewBox="0 0 20 14"><path d="M17.95.64l1.41 1.41L8.05 13.36l-.42-.42-.08.07L.99 6.44l1.46-1.46 5.57 5.59z"/></symbol><symbol id="icon_cross" viewBox="0 0 18 20"><path d="M18 1.69l-.69-.7L9 9.32.69 1 0 1.69 8.3 10 0 18.31l.69.7L9 10.68 17.31 19l.69-.69L9.7 10z"/></symbol><symbol id="icon_human" viewBox="0 0 18 17"><path d="M6.39 11.34c.7.44 1.92.66 2.61.66a12.17 12.17 0 0 0 2.73-.6 8.18 8.18 0 0 1 5.22 5.6H18a9.2 9.2 0 0 0-5.5-6.38C17.133 7.257 14.704-.07 8.98 0 3.087.07 1.179 7.636 5.47 10.6A9.23 9.23 0 0 0 0 17h1.04a8.22 8.22 0 0 1 5.35-5.66zm-2.3-5.46c0-6.54 9.81-6.54 9.81 0C13.9 8.58 11.7 11 9 11S4.1 8.57 4.1 5.88z"/></symbol><symbol id="icon_like" viewBox="0 0 18.938 17"><path id="Like" class="cls-1" d="M453.487 1223l-1.231-1.02c-3.717-3.05-5.961-4.89-7.225-7.36a6.45 6.45 0 0 1-.732-5.27 4.469 4.469 0 0 1 2.509-2.89 5.477 5.477 0 0 1 2.11-.47 5.247 5.247 0 0 1 4.291 2.32l.323.49.322-.49a5.255 5.255 0 0 1 6.347-1.87 4.745 4.745 0 0 1 2.577 2.95 7.212 7.212 0 0 1-.739 5.22c-1.424 2.6-3.812 4.56-7.769 7.81zm-4.569-15.85a4.185 4.185 0 0 0-1.633.37 3.3 3.3 0 0 0-1.861 2.17 5.325 5.325 0 0 0 .652 4.4c1.161 2.27 3.335 4.05 6.937 7.01l.516.42h.01c3.824-3.15 6.147-5.05 7.451-7.44a6.083 6.083 0 0 0 .654-4.38 3.6 3.6 0 0 0-1.95-2.22 4.042 4.042 0 0 0-4.851 1.45l-1.311 2-1.312-2a4.051 4.051 0 0 0-3.302-1.78z" transform="translate(-444.031 -1206)"/></symbol><symbol id="icon_location-marker" viewBox="0 0 22 20"><path d="M11.25 19.56S9.5 9.78 9.52 9.76L.44 5.52 21.79.5z"/></symbol><symbol id="icon_loupe" viewBox="0 0 16 15"><path d="M11.01 8.81h-.63l-.23-.22a5.2 5.2 0 1 0-.56.56l.22.23V10l4 4 1.2-1.2zm-4.8 0a3.6 3.6 0 1 1-.02-7.2 3.6 3.6 0 0 1 .01 7.2z"/></symbol><symbol id="icon_minus" viewBox="0 0 16 2"><path d="M0 2V0h16v2z"/></symbol><symbol id="icon_pin-marker" viewBox="0 0 12 23"><path d="M6 0a6 6 0 0 1 1 11.92V23H5V11.92A6 6 0 0 1 6 0z"/></symbol><symbol id="icon_plus" viewBox="0 0 16 16"><path d="M7 16V9H0V7h7V0h2v7h7v2H9v7z"/></symbol><symbol id="icon_sound" viewBox="0 0 10 14"><path d="M8.57 13c-.1 0-.5.05-.57 0l-4-3H1c-.42 0-1-.61-1-1V5c0-.39.58-1 1-1h3l4-3c.13-.1.85-.07 1 0 .15.07 0 .24 0 .4V13c-.06.03-.36 0-.43 0zM9 13c.15-.07 0 .15 0 0zm-1-1V2L4 5H1v4h3z"/></symbol><symbol id="icon_triangle" viewBox="0 0 6 5"><path d="M.99 1l5 .05L3.42 4z"/></symbol></svg>