<svg xmlns="http://www.w3.org/2000/svg" width="103.344" height="28.19" viewBox="0 0 103.344 28.19">
  <defs>
    <style>
      .cls-1 {
        fill: #c41162;
        fill-rule: evenodd;
      }
    </style>
  </defs>
  <path id="APP_Store" data-name="APP Store" class="cls-1" d="M778.144,1976.8a6.39,6.39,0,0,1,3.106-5.37,6.739,6.739,0,0,0-5.26-2.79c-2.212-.23-4.358,1.3-5.486,1.3-1.149,0-2.885-1.28-4.755-1.24a7.016,7.016,0,0,0-5.894,3.53c-2.549,4.33-.648,10.7,1.794,14.2,1.221,1.72,2.649,3.64,4.517,3.57,1.828-.08,2.511-1.15,4.716-1.15,2.186,0,2.827,1.15,4.733,1.1,1.961-.03,3.2-1.72,4.375-3.45a14.078,14.078,0,0,0,2-4,6.225,6.225,0,0,1-3.847-5.7h0Zm-3.6-10.47a6.21,6.21,0,0,0,1.469-4.51,6.529,6.529,0,0,0-4.227,2.15,5.921,5.921,0,0,0-1.508,4.35,5.467,5.467,0,0,0,4.266-1.99h0Zm22.737,17.05h-2.145l-1.175-3.63h-4.085l-1.12,3.63h-2.088l4.047-12.35h2.5l4.067,12.35h0Zm-3.675-5.15-1.062-3.23c-0.113-.33-0.324-1.1-0.634-2.32h-0.038c-0.124.52-.323,1.3-0.6,2.32l-1.044,3.23h3.375Zm14.082,0.58a4.982,4.982,0,0,1-1.25,3.59,3.664,3.664,0,0,1-2.779,1.18,2.783,2.783,0,0,1-2.574-1.27h-0.038V1987h-2.014v-9.6c0-.95-0.025-1.93-0.074-2.93h1.771l0.112,1.41h0.038a3.63,3.63,0,0,1,5.735-.35,4.874,4.874,0,0,1,1.073,3.28h0Zm-2.052.08a3.646,3.646,0,0,0-.6-2.15,2.089,2.089,0,0,0-1.753-.88,2.133,2.133,0,0,0-1.352.49,2.233,2.233,0,0,0-.792,1.27,2.587,2.587,0,0,0-.094.61v1.48a2.352,2.352,0,0,0,.607,1.64,2.014,2.014,0,0,0,1.575.67,2.081,2.081,0,0,0,1.771-.86,3.741,3.741,0,0,0,.635-2.27h0Zm12.478-.08a4.979,4.979,0,0,1-1.251,3.59,3.66,3.66,0,0,1-2.778,1.18,2.78,2.78,0,0,1-2.573-1.27h-0.038V1987h-2.014v-9.6c0-.95-0.025-1.93-0.075-2.93h1.772l0.112,1.41h0.038a3.631,3.631,0,0,1,5.736-.35,4.889,4.889,0,0,1,1.071,3.28h0Zm-2.052.08a3.646,3.646,0,0,0-.6-2.15,2.086,2.086,0,0,0-1.752-.88,2.136,2.136,0,0,0-1.353.49,2.232,2.232,0,0,0-.791,1.27,2.64,2.64,0,0,0-.094.61v1.48a2.36,2.36,0,0,0,.605,1.64,2.015,2.015,0,0,0,1.577.67,2.081,2.081,0,0,0,1.771-.86,3.741,3.741,0,0,0,.635-2.27h0Zm13.709,1.02a3.277,3.277,0,0,1-1.117,2.57,5.011,5.011,0,0,1-3.424,1.08,6.108,6.108,0,0,1-3.258-.77l0.466-1.65a5.557,5.557,0,0,0,2.912.79,2.764,2.764,0,0,0,1.773-.51,1.616,1.616,0,0,0,.633-1.34,1.7,1.7,0,0,0-.523-1.27,4.842,4.842,0,0,0-1.734-.95q-3.3-1.215-3.3-3.54a3.116,3.116,0,0,1,1.158-2.5,4.607,4.607,0,0,1,3.077-.97,6.2,6.2,0,0,1,2.853.58l-0.5,1.62a5.009,5.009,0,0,0-2.406-.57,2.471,2.471,0,0,0-1.659.51,1.468,1.468,0,0,0-.5,1.12,1.5,1.5,0,0,0,.578,1.21,6.584,6.584,0,0,0,1.828.95,6.279,6.279,0,0,1,2.387,1.5,3.1,3.1,0,0,1,.764,2.14h0Zm6.658-3.95h-2.219v4.32q0,1.65,1.175,1.65a3.709,3.709,0,0,0,.894-0.09l0.056,1.5a4.784,4.784,0,0,1-1.566.22,2.429,2.429,0,0,1-1.866-.72,3.441,3.441,0,0,1-.672-2.4v-4.48H830.91v-1.49h1.322v-1.63l1.979-.59v2.22h2.219v1.49h0Zm10.016,2.89a4.826,4.826,0,0,1-1.194,3.37,4.285,4.285,0,0,1-3.321,1.36,4.113,4.113,0,0,1-3.179-1.3,4.692,4.692,0,0,1-1.184-3.28,4.791,4.791,0,0,1,1.221-3.39,4.265,4.265,0,0,1,3.291-1.32,4.167,4.167,0,0,1,3.208,1.3,4.63,4.63,0,0,1,1.158,3.26h0Zm-2.089.06a3.956,3.956,0,0,0-.54-2.11,1.993,1.993,0,0,0-1.809-1.06,2.02,2.02,0,0,0-1.846,1.06,4.043,4.043,0,0,0-.541,2.15,3.923,3.923,0,0,0,.541,2.11,2.043,2.043,0,0,0,1.829,1.07,2.012,2.012,0,0,0,1.808-1.09,3.945,3.945,0,0,0,.558-2.13h0Zm8.636-2.7a4.268,4.268,0,0,0-.635-0.05,1.908,1.908,0,0,0-1.642.79,2.91,2.91,0,0,0-.5,1.75v4.68H848.2l0.019-6.1c0-1.03-.026-1.96-0.076-2.81H849.9l0.074,1.71h0.056a3,3,0,0,1,1.007-1.41,2.453,2.453,0,0,1,1.455-.48,2.594,2.594,0,0,1,.5.04v1.88h0ZM862,1978.5a4.525,4.525,0,0,1-.074.9h-6.042a2.581,2.581,0,0,0,.877,2.02,3.053,3.053,0,0,0,1.976.62,6.815,6.815,0,0,0,2.445-.42l0.315,1.37a7.629,7.629,0,0,1-3.039.55,4.182,4.182,0,0,1-4.514-4.49,5.038,5.038,0,0,1,1.12-3.35,3.9,3.9,0,0,1,3.17-1.43,3.405,3.405,0,0,1,2.967,1.43,4.754,4.754,0,0,1,.8,2.8h0Zm-1.921-.51a2.639,2.639,0,0,0-.391-1.52,1.771,1.771,0,0,0-1.605-.83,1.921,1.921,0,0,0-1.6.81,2.934,2.934,0,0,0-.6,1.54h4.195Zm-69.9-12.08a1.689,1.689,0,0,1-.561,1.38,2.289,2.289,0,0,1-1.474.43c-0.316,0-.586-0.02-0.813-0.04v-3.35a5.754,5.754,0,0,1,.957-0.07,2.083,2.083,0,0,1,1.372.39,1.551,1.551,0,0,1,.519,1.26h0Zm-0.586.01a1.213,1.213,0,0,0-.321-0.91,1.286,1.286,0,0,0-.938-0.32,2.839,2.839,0,0,0-.447.03v2.55a3.415,3.415,0,0,0,.375.01,1.332,1.332,0,0,0,.984-0.34,1.412,1.412,0,0,0,.347-1.02h0Zm3.69,0.52a1.326,1.326,0,0,1-.329.93,1.179,1.179,0,0,1-.915.37,1.123,1.123,0,0,1-.876-0.36,1.271,1.271,0,0,1-.326-0.9,1.308,1.308,0,0,1,.336-0.93,1.19,1.19,0,0,1,.907-0.37,1.151,1.151,0,0,1,.885.36A1.275,1.275,0,0,1,793.284,1966.44Zm-0.576.02a1.073,1.073,0,0,0-.149-0.58,0.547,0.547,0,0,0-.5-0.3,0.557,0.557,0,0,0-.509.3,1.077,1.077,0,0,0-.149.59,1.1,1.1,0,0,0,.149.58,0.551,0.551,0,0,0,.5.29,0.565,0.565,0,0,0,.5-0.29,1.124,1.124,0,0,0,.154-0.59h0Zm4.738-1.23-0.781,2.46h-0.509l-0.323-1.07a7.378,7.378,0,0,1-.2-0.79h-0.01a5.645,5.645,0,0,1-.2.79l-0.344,1.07h-0.514l-0.735-2.46h0.57l0.283,1.17c0.068,0.28.124,0.54,0.169,0.79h0.01a8.052,8.052,0,0,1,.206-0.78l0.355-1.18h0.452l0.34,1.15q0.123,0.42.2,0.81h0.016a7.853,7.853,0,0,1,.169-0.81l0.3-1.15h0.545Zm2.879,2.46H799.77v-1.41a0.521,0.521,0,0,0-.5-0.65,0.506,0.506,0,0,0-.4.18,0.63,0.63,0,0,0-.154.42v1.46h-0.555v-1.75c0-.22-0.007-0.45-0.02-0.71h0.488l0.026,0.39h0.015a0.809,0.809,0,0,1,.288-0.3,0.966,0.966,0,0,1,.5-0.14,0.8,0.8,0,0,1,.581.23,1.059,1.059,0,0,1,.288.81v1.47h0Zm1.531,0H801.3v-3.58h0.554v3.58h0Zm3.27-1.25a1.323,1.323,0,0,1-.33.93,1.18,1.18,0,0,1-.915.37,1.123,1.123,0,0,1-.876-0.36,1.275,1.275,0,0,1-.326-0.9,1.3,1.3,0,0,1,.337-0.93,1.186,1.186,0,0,1,.906-0.37,1.152,1.152,0,0,1,.885.36A1.276,1.276,0,0,1,805.126,1966.44Zm-0.577.02a1.073,1.073,0,0,0-.149-0.58,0.547,0.547,0,0,0-.5-0.3,0.556,0.556,0,0,0-.51.3,1.085,1.085,0,0,0-.148.59,1.1,1.1,0,0,0,.148.58,0.552,0.552,0,0,0,.5.29,0.565,0.565,0,0,0,.5-0.29,1.124,1.124,0,0,0,.154-0.59h0Zm3.264,1.23h-0.5l-0.041-.29h-0.015a0.851,0.851,0,0,1-.73.34,0.749,0.749,0,0,1-.57-0.22,0.683,0.683,0,0,1-.2-0.5,0.766,0.766,0,0,1,.383-0.69,2.14,2.14,0,0,1,1.078-.23v-0.04a0.445,0.445,0,0,0-.519-0.49,1.181,1.181,0,0,0-.651.18l-0.113-.35a1.636,1.636,0,0,1,.857-0.22,0.885,0.885,0,0,1,.98,1.02v0.9a3.822,3.822,0,0,0,.036.59h0Zm-0.577-.85v-0.37c-0.612-.01-0.918.15-0.918,0.49a0.378,0.378,0,0,0,.106.29,0.41,0.41,0,0,0,.271.09,0.536,0.536,0,0,0,.34-0.11,0.466,0.466,0,0,0,.192-0.29,0.488,0.488,0,0,0,.009-0.1h0Zm3.732,0.85h-0.493l-0.026-.4h-0.015a0.833,0.833,0,0,1-.8.45,0.924,0.924,0,0,1-.75-0.35,1.326,1.326,0,0,1-.3-0.9,1.38,1.38,0,0,1,.323-0.96,1.007,1.007,0,0,1,.771-0.35,0.742,0.742,0,0,1,.7.34h0.011v-1.41h0.555v2.92q0,0.36.02,0.66h0Zm-0.575-1.04v-0.41a0.818,0.818,0,0,0-.016-0.17,0.62,0.62,0,0,0-.2-0.33,0.541,0.541,0,0,0-.371-0.13,0.575,0.575,0,0,0-.488.24,1.019,1.019,0,0,0-.178.62,0.956,0.956,0,0,0,.17.59,0.577,0.577,0,0,0,.485.24,0.523,0.523,0,0,0,.439-0.2,0.651,0.651,0,0,0,.16-0.45h0Zm5.324-.21a1.326,1.326,0,0,1-.329.93,1.179,1.179,0,0,1-.915.37,1.125,1.125,0,0,1-.876-0.36,1.271,1.271,0,0,1-.326-0.9,1.308,1.308,0,0,1,.336-0.93,1.191,1.191,0,0,1,.908-0.37,1.147,1.147,0,0,1,.883.36A1.276,1.276,0,0,1,815.717,1966.44Zm-0.575.02a1.073,1.073,0,0,0-.149-0.58,0.55,0.55,0,0,0-.5-0.3,0.558,0.558,0,0,0-.509.3,1.077,1.077,0,0,0-.149.59,1.1,1.1,0,0,0,.149.58,0.551,0.551,0,0,0,.5.29,0.564,0.564,0,0,0,.5-0.29,1.125,1.125,0,0,0,.155-0.59h0Zm3.561,1.23h-0.555v-1.41a0.522,0.522,0,0,0-.5-0.65,0.5,0.5,0,0,0-.4.18,0.63,0.63,0,0,0-.154.42v1.46h-0.556v-1.75c0-.22-0.006-0.45-0.019-0.71H817l0.026,0.39h0.016a0.814,0.814,0,0,1,.287-0.3,0.97,0.97,0,0,1,.5-0.14,0.8,0.8,0,0,1,.581.23,1.059,1.059,0,0,1,.288.81v1.47h0Zm3.737-2.05h-0.612v1.19c0,0.31.109,0.46,0.324,0.46a0.858,0.858,0,0,0,.247-0.03l0.015,0.42a1.289,1.289,0,0,1-.432.06,0.675,0.675,0,0,1-.513-0.2,0.943,0.943,0,0,1-.186-0.66v-1.24h-0.365v-0.41h0.365v-0.45l0.545-.16v0.61h0.611v0.41h0Zm2.939,2.05h-0.556v-1.4q0-.66-0.5-0.66a0.53,0.53,0,0,0-.53.39,0.584,0.584,0,0,0-.026.19v1.48H823.21v-3.58h0.555v1.48h0.01a0.848,0.848,0,0,1,.751-0.41,0.782,0.782,0,0,1,.571.23,1.1,1.1,0,0,1,.282.82v1.46h0Zm3.032-1.35a1.359,1.359,0,0,1-.02.25h-1.666a0.729,0.729,0,0,0,.241.56,0.864,0.864,0,0,0,.546.17,1.816,1.816,0,0,0,.673-0.12l0.087,0.38a2.144,2.144,0,0,1-.838.15,1.143,1.143,0,0,1-1.243-1.23,1.413,1.413,0,0,1,.308-0.93,1.073,1.073,0,0,1,.873-0.39,0.938,0.938,0,0,1,.817.39,1.3,1.3,0,0,1,.222.77h0Zm-0.529-.14a0.74,0.74,0,0,0-.108-0.42,0.484,0.484,0,0,0-.442-0.22,0.525,0.525,0,0,0-.442.22,0.828,0.828,0,0,0-.165.42h1.157Z" transform="translate(-758.656 -1961.81)"/>
</svg>
