<svg xmlns="http://www.w3.org/2000/svg" width="74" height="60" viewBox="0 0 74 60"><path fill="#fff" d="M63 45h-7a1 1 0 0 1 0-2h7c2.51 0 4.48-.68 6.25-2.44a9.23 9.23 0 0 0 2.75-6.6 9.34 9.34 0 0 0-9.38-9.32v.01a1 1 0 0 1-1-1v-.12a10.82 10.82 0 0 0-13.44-10.5 1 1 0 0 1-1.1-.49 18.49 18.49 0 0 0-16.24-9.57h-.07a18.45 18.45 0 0 0-18.42 18.45c0 .5-.38 1-.9 1.05-5.4.55-9.45 5.03-9.42 10.42C2.05 38.63 6.23 43 12 43c.01 0-.01 0 0 0h3a1 1 0 0 1 0 2h-3c-.02 0 .02 0 0 0C5.13 45 .05 39.73.03 32.9a12.4 12.4 0 0 1 10.34-12.29A20.47 20.47 0 0 1 30.77.98h.07a20.5 20.5 0 0 1 17.62 9.97A12.83 12.83 0 0 1 63.58 22.7a11.32 11.32 0 0 1 7.09 19.27A10.23 10.23 0 0 1 63 45zM36.05 60a1 1 0 0 1-1-1V35.14L24.81 45.32a1 1 0 0 1-1.41 0 .99.99 0 0 1 0-1.4l11.95-11.88a1.03 1.03 0 0 1 1.41 0L48.71 43.9c.4.4.4 1.02 0 1.4a1 1 0 0 1-1.41 0L37.05 35.15V59a1 1 0 0 1-1 1z"/></svg>