<svg xmlns="http://www.w3.org/2000/svg" width="47" height="50" viewBox="0 0 47 50"><defs><clipPath id="a"><path fill="#fff" d="M0 19v-9h47v9z"/></clipPath><clipPath id="b"><path fill="#fff" d="M4 49V18h40v31z"/></clipPath><clipPath id="c"><path fill="#fff" d="M24 49V9h1v40z"/></clipPath><clipPath id="d"><path fill="#fff" d="M17.23 0C14.1-.08 12 2.46 12 5.5s2.97 5.5 6.1 5.5c5.65 0 6.9.13 6.9-2.9C25 5.49 20.37.09 17.24 0z"/></clipPath><clipPath id="e"><path fill="#fff" d="M31.77 0C34.9-.08 37 2.46 37 5.5S34.03 11 30.9 11c-5.65 0-6.9.13-6.9-2.9C24 5.49 28.63.09 31.76 0z"/></clipPath></defs><path fill="none" stroke="#5c1bbf" stroke-miterlimit="50" stroke-width="2" d="M0 19v-9h47v9z" clip-path="url(&quot;#a&quot;)" transform="translate(0 1)"/><path fill="none" stroke="#5c1bbf" stroke-miterlimit="50" stroke-width="2" d="M4 49V18h40v31z" clip-path="url(&quot;#b&quot;)" transform="translate(0 1)"/><path fill="none" stroke="#5c1bbf" stroke-miterlimit="50" stroke-width="2" d="M24 49V9h1v40z" clip-path="url(&quot;#c&quot;)" transform="translate(0 1)"/><path fill="none" stroke="#5c1bbf" stroke-miterlimit="50" stroke-width="2" d="M17.23 0C14.1-.08 12 2.46 12 5.5s2.97 5.5 6.1 5.5c5.65 0 6.9.13 6.9-2.9C25 5.49 20.37.09 17.24 0z" clip-path="url(&quot;#d&quot;)" transform="translate(0 1)"/><path fill="none" stroke="#5c1bbf" stroke-miterlimit="50" stroke-width="2" d="M31.77 0C34.9-.08 37 2.46 37 5.5S34.03 11 30.9 11c-5.65 0-6.9.13-6.9-2.9C24 5.49 28.63.09 31.76 0z" clip-path="url(&quot;#e&quot;)" transform="translate(0 1)"/></svg>