<svg xmlns="http://www.w3.org/2000/svg"><symbol id="icon_arrow" viewBox="0 0 11 6"><path d="M5.67 6L10.99.67 10.33 0 5.5 4.84.67 0 .01.67 5.33 6l.17-.18z"/></symbol><symbol id="icon_camera" viewBox="0 0 19 17"><path id="photo" class="cls-1" d="M529.33 1222.01h-11.667a3.661 3.661 0 0 1-3.663-3.74v-7.15a3.661 3.661 0 0 1 3.663-3.74h.777a.229.229 0 0 0 .224-.19 2.543 2.543 0 0 1 2.5-2.19h4.667a2.483 2.483 0 0 1 2.5 2.18.23.23 0 0 0 .225.2h.778a3.66 3.66 0 0 1 3.662 3.74v7.15a3.66 3.66 0 0 1-3.666 3.74zm-11.667-13.51a2.562 2.562 0 0 0-2.56 2.62v7.15a2.562 2.562 0 0 0 2.56 2.62h11.667a2.562 2.562 0 0 0 2.56-2.62v-7.15a2.562 2.562 0 0 0-2.56-2.62h-.778a1.335 1.335 0 0 1-1.32-1.19 1.381 1.381 0 0 0-1.4-1.19h-4.667a1.453 1.453 0 0 0-1.414 1.26 1.333 1.333 0 0 1-1.309 1.12h-.777zm5.833 9.84a3.841 3.841 0 1 1 3.761-3.84 3.81 3.81 0 0 1-3.757 3.84zm0-6.56a2.721 2.721 0 1 0 2.658 2.72 2.693 2.693 0 0 0-2.654-2.72z" transform="translate(-514 -1205)"/></symbol><symbol id="icon_check" viewBox="0 0 20 14"><path d="M17.95.64l1.41 1.41L8.05 13.36l-.42-.42-.08.07L.99 6.44l1.46-1.46 5.57 5.59z"/></symbol><symbol id="icon_cross" viewBox="0 0 18 20"><path d="M18 1.69l-.69-.7L9 9.32.69 1 0 1.69 8.3 10 0 18.31l.69.7L9 10.68 17.31 19l.69-.69L9.7 10z"/></symbol><symbol id="icon_human" viewBox="0 0 18 17"><path d="M6.39 11.34c.7.44 1.92.66 2.61.66a12.17 12.17 0 0 0 2.73-.6 8.18 8.18 0 0 1 5.22 5.6H18a9.2 9.2 0 0 0-5.5-6.38A5.87 5.87 0 0 0 8.98 0a5.86 5.86 0 1 0-3.51 10.6A9.23 9.23 0 0 0 0 17h1.04a8.22 8.22 0 0 1 5.35-5.66zm-2.3-5.46a4.9 4.9 0 0 1 9.81 0C13.9 8.58 11.7 11 9 11S4.1 8.57 4.1 5.88z"/></symbol><symbol id="icon_like" viewBox="0 0 18.938 17"><path id="Like" class="cls-1" d="M453.487 1223l-1.231-1.02c-3.717-3.05-5.961-4.89-7.225-7.36a6.45 6.45 0 0 1-.732-5.27 4.469 4.469 0 0 1 2.509-2.89 5.477 5.477 0 0 1 2.11-.47 5.247 5.247 0 0 1 4.291 2.32l.323.49.322-.49a5.255 5.255 0 0 1 6.347-1.87 4.745 4.745 0 0 1 2.577 2.95 7.212 7.212 0 0 1-.739 5.22c-1.424 2.6-3.812 4.56-7.769 7.81zm-4.569-15.85a4.185 4.185 0 0 0-1.633.37 3.3 3.3 0 0 0-1.861 2.17 5.325 5.325 0 0 0 .652 4.4c1.161 2.27 3.335 4.05 6.937 7.01l.516.42h.01c3.824-3.15 6.147-5.05 7.451-7.44a6.083 6.083 0 0 0 .654-4.38 3.6 3.6 0 0 0-1.95-2.22 4.042 4.042 0 0 0-4.851 1.45l-1.311 2-1.312-2a4.051 4.051 0 0 0-3.302-1.78z" transform="translate(-444.031 -1206)"/></symbol><symbol id="icon_plus" viewBox="0 0 16 16"><path d="M7 16V9H0V7h7V0h2v7h7v2H9v7z"/></symbol><symbol id="icon_sound" viewBox="0 0 10 14"><path d="M8.57 13c-.1 0-.5.05-.57 0l-4-3H1c-.42 0-1-.61-1-1V5c0-.39.58-1 1-1h3l4-3c.13-.1.85-.07 1 0 .15.07 0 .24 0 .4V13c-.06.03-.36 0-.43 0zM9 13c.15-.07 0 .15 0 0zm-1-1V2L4 5H1v4h3z"/></symbol><symbol id="icon_triangle" viewBox="0 0 6 5"><path d="M.99 1l5 .05L3.42 4z"/></symbol></svg>