<svg xmlns="http://www.w3.org/2000/svg" width="22" height="22" viewBox="0 0 22 22">
  <defs>
    <style>
      .cls-1 {
        fill: #77787b;
        fill-rule: evenodd;
      }
    </style>
  </defs>
  <path id="Фигура_3" data-name="Фигура 3" class="cls-1" d="M856.786,657H837.214A1.213,1.213,0,0,0,836,658.214v19.572A1.214,1.214,0,0,0,837.214,679H848v-9h-3v-3h3v-2c0-2.842.621-5,4-5,1.214,0,1.7-.041,2,0v3h-1a1.8,1.8,0,0,0-1.82,2.04v2.12h3.287L854,670h-3l0.18,9h5.606A1.215,1.215,0,0,0,858,677.786V658.214A1.214,1.214,0,0,0,856.786,657Z" transform="translate(-836 -657)"/>
</svg>
