<svg xmlns="http://www.w3.org/2000/svg" width="19" height="17" viewBox="0 0 19 17">
  <defs>
    <style>
      .cls-1 {
        fill: #fff;
        fill-rule: evenodd;
      }
    </style>
  </defs>
  <path id="photo" class="cls-1" d="M529.33,1222.01H517.663a3.661,3.661,0,0,1-3.663-3.74v-7.15a3.661,3.661,0,0,1,3.663-3.74h0.777a0.229,0.229,0,0,0,.224-0.19,2.543,2.543,0,0,1,2.5-2.19h4.667a2.483,2.483,0,0,1,2.5,2.18,0.23,0.23,0,0,0,.225.2h0.778a3.66,3.66,0,0,1,3.662,3.74v7.15A3.66,3.66,0,0,1,529.33,1222.01Zm-11.667-13.51a2.562,2.562,0,0,0-2.56,2.62v7.15a2.562,2.562,0,0,0,2.56,2.62H529.33a2.562,2.562,0,0,0,2.56-2.62v-7.15a2.562,2.562,0,0,0-2.56-2.62h-0.778a1.335,1.335,0,0,1-1.32-1.19,1.381,1.381,0,0,0-1.4-1.19h-4.667a1.453,1.453,0,0,0-1.414,1.26,1.333,1.333,0,0,1-1.309,1.12h-0.777Zm5.833,9.84a3.841,3.841,0,1,1,3.761-3.84A3.81,3.81,0,0,1,523.5,1218.34Zm0-6.56a2.721,2.721,0,1,0,2.658,2.72A2.693,2.693,0,0,0,523.5,1211.78Z" transform="translate(-514 -1205)"/>
</svg>
