<svg xmlns="http://www.w3.org/2000/svg" width="115" height="24" viewBox="0 0 115 24">
  <defs>
    <style>
      .cls-1 {
        fill: #fff;
        fill-rule: evenodd;
      }
    </style>
  </defs>
  <path id="LOGO" class="cls-1" d="M125.284,36.511c-1.827,0-4.088,1.2-4.644,2.189-0.434.78,1.61-.03,1.3,3.538,0,0.03-.372.781-2.941,15.112A2.942,2.942,0,0,0,122.2,60a3.714,3.714,0,0,0,3.647-2.65s2.508-12.5,3.127-16.041C129.619,37.89,127.7,36.511,125.284,36.511Zm20.607,16.1c0.37-2.068,2.786-14.212,2.786-14.212,0.031-.12.364-2.374-3.051-2.374a3.29,3.29,0,0,0-3.421,2.4s-0.712,2.79-1.579,7.407a4.127,4.127,0,0,0-4.087-2.848c-4.088,0-6.937,4.018-7.68,8.125-0.712,4.018.65,8.184,4.552,8.184,2.167,0,4.119-1.439,5.512-3.418a3.314,3.314,0,0,0,3.592,3.418,5.254,5.254,0,0,0,4.118-2.129C147.1,56.358,145.023,57.378,145.891,52.61Zm-6.039-1.5c-0.4,2.249-1.518,4.047-3.035,4.047s-2.044-1.8-1.641-4.047c0.433-2.248,1.579-4.078,3.1-4.078S140.285,48.863,139.852,51.112Zm22.572,2.938c-4.149,2.038-8.206,1.738-8.732-1.259,3.933,0.66,9.692.09,10.559-4.616,0.372-2.129-1.238-5.217-6.317-5.217a10.365,10.365,0,0,0-10.312,8.154,6.71,6.71,0,0,0,6.906,8.184,10.236,10.236,0,0,0,8.33-4.8c0.124-.269.093-0.39-0.031-0.48A0.339,0.339,0,0,0,162.424,54.05Zm-6.255-7.405a2.441,2.441,0,0,1,.774-0.27h0.093a0.109,0.109,0,0,0,.062-0.03,1.194,1.194,0,0,1,1.363,1.439c-0.279,1.618-1.827,2.608-4.553,2.368A5.488,5.488,0,0,1,156.169,46.644ZM182.984,44.9c0.03-.12-1.275-2.381-3.234-2.323a3.037,3.037,0,0,0-3.238,2.353l-0.371.9c0.38-1.755-1.951-2.848-4.088-2.848-4.057,0-6.967,4.018-7.71,8.125-0.713,4.018.68,8.184,4.583,8.184,2.167,0,4.087-1.439,5.511-3.387A3.259,3.259,0,0,0,178,59.326a5.261,5.261,0,0,0,4.118-2.128c0.464-.81-1.827.21-0.96-4.558C181.529,50.572,182.984,44.9,182.984,44.9Zm-7.618,6.208c-0.4,2.249-1.548,4.047-3.065,4.047s-1.982-1.8-1.58-4.047,1.549-4.078,3.066-4.078S175.769,48.863,175.366,51.112ZM190.227,36a3.231,3.231,0,0,0-3.329,3.012s-3.128,15.578-3.158,15.758c-0.526,2.818.96,4.557,3.468,4.557a5.934,5.934,0,0,0,4.4-2.128c0.4-.81-1.889.21-1.022-4.558,0.4-2.069,2.788-13.629,2.788-13.629C193.432,38.862,193.894,36,190.227,36Zm10.448,0.542c-1.982,0-3.84,1.259-4.118,2.788-0.279,1.559,1.114,2.788,3.1,2.788s3.84-1.229,4.118-2.788C204.05,37.8,202.657,36.542,200.675,36.542Zm-1.641,6.385a5.378,5.378,0,0,0-4.15,2.129c-0.371.81,1.89-.21,1.022,4.557-0.371,2.069-1.857,6.57-1.857,6.57,0,0.12-.8,3.174,3.034,3.174,4.445,0,4.986-9.534,5.419-11.872C203.028,44.666,201.542,42.927,199.034,42.927Zm33.987,0.659H228.5c0.433-2.458-1.115-5.1-6.07-5.1a8.871,8.871,0,0,0-8.113,4.5,7.083,7.083,0,0,0-.806-0.029c-3.158,0-7.307,1.769-7.865,4.887l-0.031.09c-0.4,2.369,1.425,3.807,3.407,4.527,2.136,0.719,4.087,1.049,3.87,2.488A1.627,1.627,0,0,1,211.06,56.3a1.389,1.389,0,0,1-1.486-1.829,2.4,2.4,0,0,0,.155-1.23,3.676,3.676,0,0,0-2.23-.509,3.488,3.488,0,0,0-3.468,2.729c-0.526,2.968,3.778,3.9,6.534,3.9,3.53,0,8.113-1.259,8.764-4.887,0.5-2.729-1.766-3.928-4.119-4.617-2.013-.6-3.778-0.989-3.531-2.458a1.923,1.923,0,0,1,1.734-1.409h0.218a2.81,2.81,0,0,0,2.849,3.358,3.445,3.445,0,0,0,3.468-2.668c0.247-1.469-1.208-2.638-2.508-3.118,1.084-2.009,5.171-2.1,4.706.509L220.2,54.709c-0.526,2.908,1.115,4.648,4.026,4.648a7.625,7.625,0,0,0,5.915-2.639c0.247-.36.216-0.809-0.28-0.749-1.919.21-3.56-.27-3-3.328l1.114-6.235h4.6A1.448,1.448,0,0,0,233.021,43.586Z" transform="translate(-119 -36)"/>
</svg>
