<svg xmlns="http://www.w3.org/2000/svg" width="81" height="81" viewBox="0 0 81 81"><defs><clipPath id="a"><path fill="#fff" d="M40.5 0a40.5 40.5 0 1 1 0 81 40.5 40.5 0 0 1 0-81z"/></clipPath><clipPath id="b"><path fill="#fff" d="M17 34a6 6 0 1 1 0 12 6 6 0 0 1 0-12z"/></clipPath><clipPath id="c"><path fill="#fff" d="M64 34a6 6 0 1 1 0 12 6 6 0 0 1 0-12z"/></clipPath></defs><path fill="none" stroke="#5c1bbf" stroke-miterlimit="50" stroke-width="4" d="M40.5 0a40.5 40.5 0 1 1 0 81 40.5 40.5 0 0 1 0-81z" clip-path="url(&quot;#a&quot;)"/><path fill="none" stroke="#5c1bbf" stroke-miterlimit="50" stroke-width="4" d="M17 34a6 6 0 1 1 0 12 6 6 0 0 1 0-12z" clip-path="url(&quot;#b&quot;)"/><path fill="none" stroke="#5c1bbf" stroke-miterlimit="50" stroke-width="4" d="M64 34a6 6 0 1 1 0 12 6 6 0 0 1 0-12z" clip-path="url(&quot;#c&quot;)"/><path fill="#5c1bbf" d="M30 62.07l22.64-4.1.35 1.96-22.63 4.1z"/></svg>